<svg xmlns="http://www.w3.org/2000/svg" viewBox="0 0 40 40"><path fill-rule="evenodd" d="M0.70,20.00a19.30,19.30 0 1,0 38.60,0a19.30,19.30 0 1,0 -38.60,0ZM1.90,20.00a18.10,18.10 0 1,0 36.20,0a18.10,18.10 0 1,0 -36.20,0Z"/><path d="M18.75,18.75 18.74,17.65 18.72,16.56 18.67,15.46 18.59,14.36 18.49,13.27 18.36,12.17 18.21,11.07 18.02,9.98 17.81,8.88 17.57,7.79 17.29,6.69 16.98,5.59 16.64,4.50 16.27,3.40 16.79,3.71 17.32,3.62 17.85,3.54 18.39,3.48 18.92,3.43 19.46,3.41 20.00,3.40 20.54,3.41 21.08,3.43 21.61,3.48 22.15,3.54 22.68,3.62 23.21,3.71 23.73,3.40 23.36,4.50 23.02,5.59 22.71,6.69 22.43,7.79 22.19,8.88 21.98,9.98 21.79,11.07 21.64,12.17 21.51,13.27 21.41,14.36 21.33,15.46 21.28,16.56 21.26,17.65 21.25,18.75ZM21.25,18.75 22.35,18.74 23.44,18.72 24.54,18.67 25.64,18.59 26.73,18.49 27.83,18.36 28.93,18.21 30.02,18.02 31.12,17.81 32.21,17.57 33.31,17.29 34.41,16.98 35.50,16.64 36.60,16.27 36.29,16.79 36.38,17.32 36.46,17.85 36.52,18.39 36.57,18.92 36.59,19.46 36.60,20.00 36.59,20.54 36.57,21.08 36.52,21.61 36.46,22.15 36.38,22.68 36.29,23.21 36.60,23.73 35.50,23.36 34.41,23.02 33.31,22.71 32.21,22.43 31.12,22.19 30.02,21.98 28.93,21.79 27.83,21.64 26.73,21.51 25.64,21.41 24.54,21.33 23.44,21.28 22.35,21.26 21.25,21.25ZM21.25,21.25 21.26,22.35 21.28,23.44 21.33,24.54 21.41,25.64 21.51,26.73 21.64,27.83 21.79,28.93 21.98,30.02 22.19,31.12 22.43,32.21 22.71,33.31 23.02,34.41 23.36,35.50 23.73,36.60 23.21,36.29 22.68,36.38 22.15,36.46 21.61,36.52 21.08,36.57 20.54,36.59 20.00,36.60 19.46,36.59 18.92,36.57 18.39,36.52 17.85,36.46 17.32,36.38 16.79,36.29 16.27,36.60 16.64,35.50 16.98,34.41 17.29,33.31 17.57,32.21 17.81,31.12 18.02,30.02 18.21,28.93 18.36,27.83 18.49,26.73 18.59,25.64 18.67,24.54 18.72,23.44 18.74,22.35 18.75,21.25ZM18.75,21.25 17.65,21.26 16.56,21.28 15.46,21.33 14.36,21.41 13.27,21.51 12.17,21.64 11.07,21.79 9.98,21.98 8.88,22.19 7.79,22.43 6.69,22.71 5.59,23.02 4.50,23.36 3.40,23.73 3.71,23.21 3.62,22.68 3.54,22.15 3.48,21.61 3.43,21.08 3.41,20.54 3.40,20.00 3.41,19.46 3.43,18.92 3.48,18.39 3.54,17.85 3.62,17.32 3.71,16.79 3.40,16.27 4.50,16.64 5.59,16.98 6.69,17.29 7.79,17.57 8.88,17.81 9.98,18.02 11.07,18.21 12.17,18.36 13.27,18.49 14.36,18.59 15.46,18.67 16.56,18.72 17.65,18.74 18.75,18.75ZM18.70,18.70 21.30,18.70 21.30,21.30 18.70,21.30Z"/></svg>
